<svg width="190" height="100" viewBox="0 0 190 100" fill="none" xmlns="http://www.w3.org/2000/svg">
<rect width="190" height="100" fill="#"/>
<path d="M15 69C15 67.9 15.9 67 17 67C18.1 67 19 67.9 19 69C19 70.1 18.1 71 17 71C15.9 71 15 70.1 15 69ZM9.25 88.5C8.84 88.5 8.5 88.84 8.5 89.25C8.5 89.66 8.84 90 9.25 90C9.66 90 10 89.66 10 89.25C10 88.84 9.66 88.5 9.25 88.5ZM17.75 88.5C17.34 88.5 17 88.84 17 89.25C17 89.66 17.34 90 17.75 90C18.16 90 18.5 89.66 18.5 89.25C18.5 88.84 18.16 88.5 17.75 88.5ZM21.24 85C21.1248 84.9992 21.0111 85.026 20.9085 85.0782C20.8058 85.1304 20.7172 85.2065 20.65 85.3C20.1 86.03 19.23 86.5 18.25 86.5H18V80.5L13.68 77.83L15.48 74.94C16.0649 75.8765 16.8785 76.6487 17.8442 77.1841C18.8098 77.7194 19.8959 78.0002 21 78V76C19.15 76 17.56 74.88 16.87 73.28L16.35 72.07C16.16 71.64 15.61 71 14.7 71H9L6.5 75L8.2 76.06L10.1 73H12.45L10.05 76.84C9.74 77.34 9.66 77.95 9.84 78.51L11.18 82.66L8.06 86.42C7.36 86.26 6.76 85.85 6.35 85.3C6.29091 85.2212 6.21687 85.1548 6.13212 85.1046C6.04737 85.0545 5.95357 85.0215 5.85607 85.0075C5.75856 84.9936 5.65927 84.999 5.56386 85.0235C5.46845 85.0479 5.37879 85.0909 5.3 85.15C5.22121 85.2091 5.15482 85.2831 5.10464 85.3679C5.05446 85.4526 5.02147 85.5464 5.00754 85.6439C4.99361 85.7414 4.99902 85.8407 5.02346 85.9361C5.04791 86.0315 5.09091 86.1212 5.15 86.2C5.97 87.3 7.28 88 8.75 88H18.25C19.72 88 21.03 87.3 21.85 86.2C21.95 86.06 22 85.9 22 85.75C22 85.36 21.68 85 21.24 85ZM16 86.5H10.6L13.5 83L12.5 79.7L16 81.9V86.5Z" fill="white"/>
<g clip-path="url(#clip0)">
<path d="M34.8171 20.4423C34.1004 19.6078 34.1969 18.3387 35.0314 17.6221C35.8659 16.9054 37.1351 17.0019 37.8517 17.8364C38.5683 18.6709 38.4719 19.9401 37.6373 20.6567C36.8028 21.3733 35.5337 21.2769 34.8171 20.4423ZM43.1588 38.9823C42.8477 39.2494 42.8113 39.7288 43.0784 40.0399C43.3455 40.3509 43.825 40.3874 44.136 40.1202C44.4471 39.8531 44.4835 39.3737 44.2164 39.0626C43.9493 38.7516 43.4698 38.7151 43.1588 38.9823ZM49.6074 33.4446C49.2963 33.7117 49.2599 34.1912 49.527 34.5022C49.7941 34.8133 50.2736 34.8497 50.5846 34.5826C50.8957 34.3155 50.9321 33.836 50.665 33.525C50.3979 33.2139 49.9184 33.1775 49.6074 33.4446ZM49.9749 28.5156C49.887 28.59 49.8182 28.6844 49.7743 28.7909C49.7304 28.8974 49.7128 29.0128 49.7227 29.1276C49.7811 30.0397 49.4272 30.9631 48.6837 31.6015L48.4941 31.7644L44.5851 27.2125L39.5683 28.0013L39.0511 24.6361C40.1049 24.9655 41.2252 25.0213 42.3066 24.7983C43.388 24.5753 44.3949 24.0808 45.2324 23.3614L43.9294 21.844C42.5259 23.0493 40.59 23.2355 39.0241 22.4711L37.8413 21.8919C37.417 21.6895 36.5828 21.5623 35.8924 22.1551L31.5681 25.8686L32.2774 30.532L34.2577 30.2286L33.7056 26.6693L35.4884 25.1383L36.1694 29.6151C36.2599 30.1964 36.5966 30.7113 37.098 31.0189L40.8183 33.2943L40.9009 38.1795C40.2656 38.5142 39.5433 38.594 38.8739 38.4439C38.7777 38.4226 38.6783 38.4205 38.5813 38.4376C38.4844 38.4547 38.3917 38.4908 38.3086 38.5438C38.2256 38.5967 38.1538 38.6655 38.0973 38.7462C38.0409 38.8269 38.0009 38.918 37.9796 39.0141C37.9583 39.1103 37.9562 39.2097 37.9733 39.3067C37.9905 39.4037 38.0266 39.4963 38.0795 39.5794C38.1325 39.6624 38.2013 39.7342 38.282 39.7907C38.3627 39.8472 38.4537 39.8872 38.5499 39.9084C39.8886 40.2087 41.3385 39.8864 42.4537 38.9287L49.661 32.7395C50.7762 31.7818 51.314 30.3973 51.2195 29.0286C51.2041 28.8572 51.1378 28.7033 51.0401 28.5895C50.786 28.2936 50.3087 28.229 49.9749 28.5156ZM46.9768 33.0674L42.88 36.5854L42.7999 32.0408L39.8913 30.1887L43.9799 29.5776L46.9768 33.0674Z" fill="white"/>
</g>
<g clip-path="url(#clip1)">
<path d="M95.0591 27.7294C95.2261 28.8167 94.473 29.8428 93.3858 30.0098C92.2985 30.1767 91.2724 29.4237 91.1055 28.3364C90.9385 27.2491 91.6916 26.223 92.7788 26.0561C93.8661 25.8892 94.8922 26.6422 95.0591 27.7294ZM97.7836 7.58274C98.1889 7.52053 98.4734 7.13287 98.4112 6.72762C98.3489 6.32237 97.9613 6.0379 97.556 6.10011C97.1508 6.16232 96.8663 6.54998 96.9285 6.95523C96.9907 7.36048 97.3784 7.64495 97.7836 7.58274ZM89.3821 8.87252C89.7873 8.81031 90.0718 8.42266 90.0096 8.0174C89.9474 7.61215 89.5597 7.32768 89.1545 7.38989C88.7492 7.45211 88.4647 7.83976 88.5269 8.24501C88.5892 8.65027 88.9768 8.93474 89.3821 8.87252ZM86.4636 12.8616C86.5775 12.8449 86.6858 12.8012 86.7794 12.734C86.8729 12.6668 86.949 12.5782 87.0012 12.4755C87.4341 11.6705 88.2227 11.0739 89.1913 10.9252L89.4384 10.8873L90.3489 16.8178L95.024 18.8014L93.6834 21.9311C92.9631 21.0942 92.0418 20.4543 91.0061 20.0717C89.9703 19.6891 88.8543 19.5764 87.763 19.7441L88.0664 21.7209C89.895 21.4402 91.6366 22.306 92.5614 23.7828L93.2589 24.8998C93.512 25.296 94.1527 25.8452 95.0522 25.7071L100.686 24.8422L102.55 20.5091L100.709 19.7194L99.2954 23.0322L96.9727 23.3888L98.7622 19.2291C98.9927 18.6879 98.9792 18.0728 98.7163 17.5466L96.7621 13.648L99.2755 9.45808C99.9917 9.51001 100.647 9.82422 101.136 10.3056C101.206 10.3746 101.289 10.4289 101.381 10.4657C101.472 10.5024 101.57 10.5208 101.668 10.5198C101.767 10.5187 101.864 10.4983 101.955 10.4597C102.045 10.421 102.127 10.3649 102.196 10.2946C102.265 10.2242 102.32 10.141 102.356 10.0496C102.393 9.9582 102.411 9.86047 102.41 9.76198C102.409 9.6635 102.389 9.56618 102.35 9.47558C102.312 9.38499 102.256 9.30289 102.185 9.23397C101.208 8.27114 99.8067 7.77802 98.3537 8.00108L88.9637 9.4426C87.5107 9.66566 86.3221 10.5563 85.6785 11.768C85.6009 11.9216 85.5758 12.0873 85.5986 12.2356C85.6577 12.6211 86.0287 12.9283 86.4636 12.8616ZM91.4153 10.5838L96.7528 9.76443L94.4174 13.6639L95.9066 16.774L92.1133 15.1306L91.4153 10.5838Z" fill="white"/>
</g>
<g clip-path="url(#clip2)">
<path d="M156.792 22.0175C157.538 21.2087 158.81 21.1571 159.618 21.9027C160.427 22.6483 160.479 23.9201 159.733 24.7288C158.988 25.5376 157.716 25.5892 156.907 24.8436C156.098 24.098 156.047 22.8262 156.792 22.0175ZM139.347 32.4567C139.046 32.1787 138.565 32.1983 138.287 32.4997C138.009 32.8011 138.029 33.2816 138.33 33.5595C138.632 33.8374 139.112 33.8179 139.39 33.5164C139.668 33.215 139.648 32.7346 139.347 32.4567ZM145.596 38.2182C145.295 37.9403 144.815 37.9598 144.537 38.2613C144.259 38.5627 144.278 39.0431 144.58 39.3211C144.881 39.599 145.362 39.5795 145.639 39.278C145.917 38.9766 145.898 38.4961 145.596 38.2182ZM150.535 38.0106C150.451 37.9319 150.349 37.8746 150.238 37.8434C150.127 37.8122 150.01 37.808 149.898 37.8313C148.998 37.9952 148.04 37.751 147.32 37.0867L147.136 36.9173L151.203 32.506L149.837 27.6147L153.119 26.71C152.914 27.795 152.989 28.9143 153.336 29.9624C153.683 31.0106 154.291 31.9531 155.103 32.7014L156.459 31.231C155.099 29.977 154.689 28.0758 155.266 26.4318L155.704 25.1897C155.856 24.7447 155.885 23.9014 155.216 23.2846L151.025 19.4209L146.476 20.6672L147.007 22.5988L150.478 21.637L152.206 23.2299L147.839 24.4263C147.272 24.5838 146.8 24.978 146.552 25.5118L144.725 29.4712L139.882 30.1208C139.476 29.5287 139.313 28.8205 139.384 28.1382C139.394 28.0403 139.385 27.9413 139.356 27.8469C139.328 27.7526 139.281 27.6647 139.219 27.5884C139.157 27.5121 139.08 27.4488 138.993 27.4021C138.907 27.3554 138.812 27.3262 138.714 27.3162C138.616 27.3063 138.517 27.3157 138.422 27.344C138.328 27.3723 138.24 27.4189 138.164 27.4811C138.088 27.5434 138.024 27.6201 137.978 27.7068C137.931 27.7935 137.902 27.8886 137.892 27.9865C137.749 29.3511 138.238 30.7537 139.318 31.7501L146.303 38.1895C147.384 39.186 148.821 39.5593 150.17 39.3064C150.338 39.2712 150.483 39.1875 150.585 39.0772C150.849 38.7904 150.858 38.3089 150.535 38.0106ZM145.665 35.5616L141.695 31.9013L146.2 31.2938L147.701 28.1897L148.783 32.1796L145.665 35.5616Z" fill="white"/>
</g>
<g clip-path="url(#clip3)">
<path d="M173.389 69.2415C173.409 68.1417 174.326 67.2587 175.426 67.2791C176.525 67.2996 177.409 68.2162 177.388 69.316C177.368 70.4158 176.451 71.2989 175.351 71.2784C174.251 71.258 173.368 70.3414 173.389 69.2415ZM167.277 88.6311C166.867 88.6235 166.52 88.9571 166.513 89.367C166.505 89.7769 166.839 90.1232 167.249 90.1308C167.659 90.1385 168.005 89.8049 168.013 89.3949C168.02 88.985 167.687 88.6387 167.277 88.6311ZM175.775 88.7894C175.365 88.7817 175.019 89.1153 175.011 89.5253C175.004 89.9352 175.337 90.2815 175.747 90.2891C176.157 90.2967 176.503 89.9631 176.511 89.5532C176.519 89.1433 176.185 88.797 175.775 88.7894ZM179.33 85.355C179.215 85.352 179.1 85.3767 178.997 85.427C178.893 85.4772 178.803 85.5516 178.734 85.6439C178.171 86.3636 177.292 86.8173 176.312 86.799L176.062 86.7944L176.174 80.7954L171.905 78.0454L173.758 75.1895C174.325 76.1367 175.125 76.9239 176.08 77.4771C177.036 78.0304 178.116 78.3313 179.22 78.3517L179.257 76.3521C177.408 76.3176 175.839 75.1682 175.179 73.5556L174.681 72.3362C174.499 71.9027 173.961 71.2526 173.052 71.2356L167.353 71.1295L164.779 75.0822L166.459 76.1737L168.415 73.1496L170.765 73.1934L168.294 76.988C167.974 77.4822 167.883 78.0906 168.053 78.6538L169.315 82.828L166.126 86.5293C165.429 86.3563 164.836 85.9352 164.437 85.3777C164.379 85.2978 164.306 85.23 164.223 85.1783C164.139 85.1265 164.046 85.0918 163.948 85.076C163.851 85.0603 163.752 85.0639 163.656 85.0865C163.56 85.1092 163.47 85.1505 163.39 85.2081C163.31 85.2657 163.242 85.3385 163.19 85.4223C163.139 85.5061 163.104 85.5993 163.088 85.6965C163.072 85.7938 163.076 85.8931 163.099 85.989C163.121 86.0848 163.163 86.1753 163.22 86.2552C164.02 87.3702 165.316 88.0945 166.786 88.1219L176.284 88.2988C177.754 88.3261 179.077 87.6507 179.917 86.5661C180.02 86.428 180.073 86.269 180.076 86.119C180.083 85.7291 179.77 85.3632 179.33 85.355ZM174.063 86.7571L168.664 86.6566L171.628 83.2112L170.69 79.8931L174.148 82.1579L174.063 86.7571Z" fill="white"/>
</g>
<path d="M22.44 63.168C21.272 63.168 20.216 62.968 19.272 62.568C18.344 62.168 17.608 61.592 17.064 60.84C16.52 60.088 16.24 59.2 16.224 58.176H19.824C19.872 58.864 20.112 59.408 20.544 59.808C20.992 60.208 21.6 60.408 22.368 60.408C23.152 60.408 23.768 60.224 24.216 59.856C24.664 59.472 24.888 58.976 24.888 58.368C24.888 57.872 24.736 57.464 24.432 57.144C24.128 56.824 23.744 56.576 23.28 56.4C22.832 56.208 22.208 56 21.408 55.776C20.32 55.456 19.432 55.144 18.744 54.84C18.072 54.52 17.488 54.048 16.992 53.424C16.512 52.784 16.272 51.936 16.272 50.88C16.272 49.888 16.52 49.024 17.016 48.288C17.512 47.552 18.208 46.992 19.104 46.608C20 46.208 21.024 46.008 22.176 46.008C23.904 46.008 25.304 46.432 26.376 47.28C27.464 48.112 28.064 49.28 28.176 50.784H24.48C24.448 50.208 24.2 49.736 23.736 49.368C23.288 48.984 22.688 48.792 21.936 48.792C21.28 48.792 20.752 48.96 20.352 49.296C19.968 49.632 19.776 50.12 19.776 50.76C19.776 51.208 19.92 51.584 20.208 51.888C20.512 52.176 20.88 52.416 21.312 52.608C21.76 52.784 22.384 52.992 23.184 53.232C24.272 53.552 25.16 53.872 25.848 54.192C26.536 54.512 27.128 54.992 27.624 55.632C28.12 56.272 28.368 57.112 28.368 58.152C28.368 59.048 28.136 59.88 27.672 60.648C27.208 61.416 26.528 62.032 25.632 62.496C24.736 62.944 23.672 63.168 22.44 63.168ZM39.153 63L34.641 57.336V63H31.281V45.24H34.641V55.344L39.105 49.704H43.473L37.617 56.376L43.521 63H39.153ZM44.4326 56.304C44.4326 54.96 44.6966 53.768 45.2246 52.728C45.7686 51.688 46.4966 50.888 47.4086 50.328C48.3366 49.768 49.3686 49.488 50.5046 49.488C51.4966 49.488 52.3606 49.688 53.0966 50.088C53.8486 50.488 54.4486 50.992 54.8966 51.6V49.704H58.2806V63H54.8966V61.056C54.4646 61.68 53.8646 62.2 53.0966 62.616C52.3446 63.016 51.4726 63.216 50.4806 63.216C49.3606 63.216 48.3366 62.928 47.4086 62.352C46.4966 61.776 45.7686 60.968 45.2246 59.928C44.6966 58.872 44.4326 57.664 44.4326 56.304ZM54.8966 56.352C54.8966 55.536 54.7366 54.84 54.4166 54.264C54.0966 53.672 53.6646 53.224 53.1206 52.92C52.5766 52.6 51.9926 52.44 51.3686 52.44C50.7446 52.44 50.1686 52.592 49.6406 52.896C49.1126 53.2 48.6806 53.648 48.3446 54.24C48.0246 54.816 47.8646 55.504 47.8646 56.304C47.8646 57.104 48.0246 57.808 48.3446 58.416C48.6806 59.008 49.1126 59.464 49.6406 59.784C50.1846 60.104 50.7606 60.264 51.3686 60.264C51.9926 60.264 52.5766 60.112 53.1206 59.808C53.6646 59.488 54.0966 59.04 54.4166 58.464C54.7366 57.872 54.8966 57.168 54.8966 56.352ZM65.4743 52.464V58.896C65.4743 59.344 65.5783 59.672 65.7863 59.88C66.0103 60.072 66.3783 60.168 66.8903 60.168H68.4503V63H66.3383C63.5063 63 62.0903 61.624 62.0903 58.872V52.464H60.5063V49.704H62.0903V46.416H65.4743V49.704H68.4503V52.464H65.4743ZM83.2269 56.064C83.2269 56.544 83.1949 56.976 83.1309 57.36H73.4109C73.4909 58.32 73.8269 59.072 74.4189 59.616C75.0109 60.16 75.7389 60.432 76.6029 60.432C77.8509 60.432 78.7389 59.896 79.2669 58.824H82.8909C82.5069 60.104 81.7709 61.16 80.6829 61.992C79.5949 62.808 78.2589 63.216 76.6749 63.216C75.3949 63.216 74.2429 62.936 73.2189 62.376C72.2109 61.8 71.4189 60.992 70.8429 59.952C70.2829 58.912 70.0029 57.712 70.0029 56.352C70.0029 54.976 70.2829 53.768 70.8429 52.728C71.4029 51.688 72.1869 50.888 73.1949 50.328C74.2029 49.768 75.3629 49.488 76.6749 49.488C77.9389 49.488 79.0669 49.76 80.0589 50.304C81.0669 50.848 81.8429 51.624 82.3869 52.632C82.9469 53.624 83.2269 54.768 83.2269 56.064ZM79.7469 55.104C79.7309 54.24 79.4189 53.552 78.8109 53.04C78.2029 52.512 77.4589 52.248 76.5789 52.248C75.7469 52.248 75.0429 52.504 74.4669 53.016C73.9069 53.512 73.5629 54.208 73.4349 55.104H79.7469ZM89.0394 51.768C89.4714 51.064 90.0314 50.512 90.7194 50.112C91.4234 49.712 92.2234 49.512 93.1194 49.512V53.04H92.2314C91.1754 53.04 90.3754 53.288 89.8314 53.784C89.3034 54.28 89.0394 55.144 89.0394 56.376V63H85.6794V49.704H89.0394V51.768ZM101.167 63.168C99.9986 63.168 98.9426 62.968 97.9986 62.568C97.0706 62.168 96.3346 61.592 95.7906 60.84C95.2466 60.088 94.9666 59.2 94.9506 58.176H98.5506C98.5986 58.864 98.8386 59.408 99.2706 59.808C99.7186 60.208 100.327 60.408 101.095 60.408C101.879 60.408 102.495 60.224 102.943 59.856C103.391 59.472 103.615 58.976 103.615 58.368C103.615 57.872 103.463 57.464 103.159 57.144C102.855 56.824 102.471 56.576 102.007 56.4C101.559 56.208 100.935 56 100.135 55.776C99.0466 55.456 98.1586 55.144 97.4706 54.84C96.7986 54.52 96.2146 54.048 95.7186 53.424C95.2386 52.784 94.9986 51.936 94.9986 50.88C94.9986 49.888 95.2466 49.024 95.7426 48.288C96.2386 47.552 96.9346 46.992 97.8306 46.608C98.7266 46.208 99.7506 46.008 100.903 46.008C102.631 46.008 104.031 46.432 105.103 47.28C106.191 48.112 106.791 49.28 106.903 50.784H103.207C103.175 50.208 102.927 49.736 102.463 49.368C102.015 48.984 101.415 48.792 100.663 48.792C100.007 48.792 99.4786 48.96 99.0786 49.296C98.6946 49.632 98.5026 50.12 98.5026 50.76C98.5026 51.208 98.6466 51.584 98.9346 51.888C99.2386 52.176 99.6066 52.416 100.039 52.608C100.487 52.784 101.111 52.992 101.911 53.232C102.999 53.552 103.887 53.872 104.575 54.192C105.263 54.512 105.855 54.992 106.351 55.632C106.847 56.272 107.095 57.112 107.095 58.152C107.095 59.048 106.863 59.88 106.399 60.648C105.935 61.416 105.255 62.032 104.359 62.496C103.463 62.944 102.399 63.168 101.167 63.168ZM109.144 56.352C109.144 54.976 109.424 53.776 109.984 52.752C110.544 51.712 111.32 50.912 112.312 50.352C113.304 49.776 114.44 49.488 115.72 49.488C117.368 49.488 118.728 49.904 119.8 50.736C120.888 51.552 121.616 52.704 121.984 54.192H118.36C118.168 53.616 117.84 53.168 117.376 52.848C116.928 52.512 116.368 52.344 115.696 52.344C114.736 52.344 113.976 52.696 113.416 53.4C112.856 54.088 112.576 55.072 112.576 56.352C112.576 57.616 112.856 58.6 113.416 59.304C113.976 59.992 114.736 60.336 115.696 60.336C117.056 60.336 117.944 59.728 118.36 58.512H121.984C121.616 59.952 120.888 61.096 119.8 61.944C118.712 62.792 117.352 63.216 115.72 63.216C114.44 63.216 113.304 62.936 112.312 62.376C111.32 61.8 110.544 61 109.984 59.976C109.424 58.936 109.144 57.728 109.144 56.352ZM131.933 49.512C132.941 49.512 133.837 49.736 134.621 50.184C135.405 50.616 136.013 51.264 136.445 52.128C136.893 52.976 137.117 54 137.117 55.2V63H133.757V55.656C133.757 54.6 133.493 53.792 132.965 53.232C132.437 52.656 131.717 52.368 130.805 52.368C129.877 52.368 129.141 52.656 128.597 53.232C128.069 53.792 127.805 54.6 127.805 55.656V63H124.445V45.24H127.805V51.36C128.237 50.784 128.813 50.336 129.533 50.016C130.253 49.68 131.053 49.512 131.933 49.512ZM146.216 63.216C144.936 63.216 143.784 62.936 142.76 62.376C141.736 61.8 140.928 60.992 140.336 59.952C139.76 58.912 139.472 57.712 139.472 56.352C139.472 54.992 139.768 53.792 140.36 52.752C140.968 51.712 141.792 50.912 142.832 50.352C143.872 49.776 145.032 49.488 146.312 49.488C147.592 49.488 148.752 49.776 149.792 50.352C150.832 50.912 151.648 51.712 152.24 52.752C152.848 53.792 153.152 54.992 153.152 56.352C153.152 57.712 152.84 58.912 152.216 59.952C151.608 60.992 150.776 61.8 149.72 62.376C148.68 62.936 147.512 63.216 146.216 63.216ZM146.216 60.288C146.824 60.288 147.392 60.144 147.92 59.856C148.464 59.552 148.896 59.104 149.216 58.512C149.536 57.92 149.696 57.2 149.696 56.352C149.696 55.088 149.36 54.12 148.688 53.448C148.032 52.76 147.224 52.416 146.264 52.416C145.304 52.416 144.496 52.76 143.84 53.448C143.2 54.12 142.88 55.088 142.88 56.352C142.88 57.616 143.192 58.592 143.816 59.28C144.456 59.952 145.256 60.288 146.216 60.288ZM161.521 63.216C160.241 63.216 159.089 62.936 158.065 62.376C157.041 61.8 156.233 60.992 155.641 59.952C155.065 58.912 154.777 57.712 154.777 56.352C154.777 54.992 155.073 53.792 155.665 52.752C156.273 51.712 157.097 50.912 158.137 50.352C159.177 49.776 160.337 49.488 161.617 49.488C162.897 49.488 164.057 49.776 165.097 50.352C166.137 50.912 166.953 51.712 167.545 52.752C168.153 53.792 168.457 54.992 168.457 56.352C168.457 57.712 168.145 58.912 167.521 59.952C166.913 60.992 166.081 61.8 165.025 62.376C163.985 62.936 162.817 63.216 161.521 63.216ZM161.521 60.288C162.129 60.288 162.697 60.144 163.225 59.856C163.769 59.552 164.201 59.104 164.521 58.512C164.841 57.92 165.001 57.2 165.001 56.352C165.001 55.088 164.665 54.12 163.993 53.448C163.337 52.76 162.529 52.416 161.569 52.416C160.609 52.416 159.801 52.76 159.145 53.448C158.505 54.12 158.185 55.088 158.185 56.352C158.185 57.616 158.497 58.592 159.121 59.28C159.761 59.952 160.561 60.288 161.521 60.288ZM174.282 45.24V63H170.922V45.24H174.282Z" fill="white"/>
<defs>
<clipPath id="clip0">
<rect width="24" height="24" fill="white" transform="translate(23 26.6357) rotate(-40.6539)"/>
</clipPath>
<clipPath id="clip1">
<rect width="24" height="24" fill="white" transform="translate(108.364 28.7221) rotate(171.272)"/>
</clipPath>
<clipPath id="clip2">
<rect width="24" height="24" fill="white" transform="translate(149.268 11) rotate(42.6746)"/>
</clipPath>
<clipPath id="clip3">
<rect width="24" height="24" fill="white" transform="translate(160.447 66) rotate(1.06695)"/>
</clipPath>
</defs>
</svg>
